<?xml version="1.0" standalone="no"?>
<!DOCTYPE svg PUBLIC "-//W3C//DTD SVG 20010904//EN"
 "http://www.w3.org/TR/2001/REC-SVG-20010904/DTD/svg10.dtd">
<svg version="1.0" xmlns="http://www.w3.org/2000/svg"
 width="260.000000pt" height="260.000000pt" viewBox="0 0 260.000000 260.000000"
 preserveAspectRatio="xMidYMid meet">
<metadata>
Created by potrace 1.14, written by Peter Selinger 2001-2017
</metadata>
<g transform="translate(0.000000,260.000000) scale(0.100000,-0.100000)"
fill="#000000" stroke="none">
<path d="M1297 2395 c-1 -1 -44 -5 -94 -8 -317 -21 -613 -197 -806 -481 -212
-309 -240 -739 -72 -1080 130 -262 389 -484 654 -562 179 -52 430 -56 604 -11
345 91 638 364 750 699 14 42 29 96 32 120 4 24 10 61 15 83 13 59 5 299 -13
380 -68 307 -266 571 -546 729 -69 40 -213 94 -270 102 -20 3 -42 7 -49 9 -19
7 -199 24 -205 20z m-252 -615 c94 -58 108 -188 29 -264 -104 -101 -270 -38
-282 107 -11 140 134 230 253 157z m694 5 c82 -42 112 -154 64 -235 -44 -76
-145 -105 -222 -65 -136 70 -114 272 34 316 28 8 94 0 124 -16z m-826 -858
c63 -59 190 -123 272 -138 84 -16 237 -6 309 20 108 38 198 104 289 213 l22
27 55 -35 c30 -19 62 -39 70 -44 29 -17 -105 -159 -226 -239 -221 -147 -533
-155 -771 -21 -85 48 -187 139 -235 208 l-30 44 23 16 c13 9 43 29 68 44 l45
26 28 -36 c16 -21 52 -59 81 -85z"/>
</g>
</svg>
